<svg width="96" height="32" viewBox="0 0 96 32" fill="none" xmlns="http://www.w3.org/2000/svg">
<path d="M15.0252 8.96985V15.415H10.375V23.3586C10.375 24.2207 10.7264 24.7954 11.4084 25.0417C12.0904 25.288 13.3098 25.3701 15.0252 25.288V31.3842C10.747 31.8153 7.77094 31.4253 6.09688 30.1732C4.44349 28.88 3.61679 26.6222 3.61679 23.3586V15.415H0V8.96985H3.61679V4.70045L10.3957 2.6889V8.96985H15.0252Z" fill="#4F51FF"/>
<path d="M34.8039 11.0635V8.96986H41.5828V31.3842H34.8039V29.2701C33.2331 31.0969 31.0011 32 28.087 32C25.1109 32 22.5688 30.8711 20.4607 28.5927C18.3526 26.3143 17.2986 23.5228 17.2986 20.1565C17.2986 16.8313 18.3526 14.0398 20.4607 11.7819C22.5894 9.48301 25.1315 8.33356 28.087 8.33356C30.9804 8.33356 33.2331 9.25723 34.8039 11.0635ZM24.0568 20.177C24.0568 21.8602 24.5528 23.1738 25.5449 24.1591C26.5369 25.1443 27.8389 25.637 29.4303 25.637C31.0217 25.637 32.3238 25.1443 33.3158 24.1591C34.3078 23.1738 34.8039 21.8397 34.8039 20.177C34.8039 18.4939 34.3078 17.1803 33.3158 16.195C32.3238 15.2098 31.0217 14.7171 29.4303 14.7171C27.8389 14.7171 26.5369 15.2098 25.5449 16.195C24.5528 17.1803 24.0568 18.4939 24.0568 20.177Z" fill="#4F51FF"/>
<path d="M59.7493 8.33355C62.1881 8.33355 64.1928 9.15459 65.7429 10.7967C67.3756 12.4798 68.2023 14.7377 68.2023 17.6113V31.3637H61.4234V18.5965C61.4234 17.3034 61.0721 16.3182 60.3487 15.5997C59.6253 14.8813 58.6746 14.5324 57.4966 14.5324C56.1739 14.5324 55.1405 14.9224 54.3965 15.7229C53.6525 16.5234 53.3011 17.6523 53.3011 19.1507V31.3842H46.5222V0L49.9117 3.28416L53.3011 0V11.0635C54.6652 9.25722 56.8146 8.33355 59.7493 8.33355Z" fill="#4F51FF"/>
<path d="M89.2211 11.0635V8.96986H96V31.3842H89.2211V29.2701C87.6504 31.0969 85.4183 32 82.5042 32C79.5281 32 76.986 30.8711 74.8779 28.5927C72.7699 26.3143 71.7158 23.5228 71.7158 20.1565C71.7158 16.8313 72.7699 14.0398 74.8779 11.7819C77.0067 9.48301 79.5488 8.33356 82.5042 8.33356C85.4183 8.33356 87.671 9.25723 89.2211 11.0635ZM78.4947 20.177C78.4947 21.8602 78.9907 23.1738 79.9828 24.1591C80.9748 25.1443 82.2768 25.637 83.8682 25.637C85.4596 25.637 86.7617 25.1443 87.7537 24.1591C88.7457 23.1738 89.2418 21.8397 89.2418 20.177C89.2418 18.4939 88.7457 17.1803 87.7537 16.195C86.7617 15.2098 85.4596 14.7171 83.8682 14.7171C82.2768 14.7171 80.9748 15.2098 79.9828 16.195C78.9907 17.1597 78.4947 18.4939 78.4947 20.177Z" fill="#4F51FF"/>
</svg>
